<svg width="184" height="120" viewBox="0 0 184 120" fill="none" xmlns="http://www.w3.org/2000/svg">
<path d="M92 16C106.359 16 118 27.6406 118 42C118 56.3594 106.359 68 92 68C77.6406 68 66 56.3594 66 42C66 27.6406 77.6406 16 92 16ZM84.4766 40.332C84.3128 39.8895 83.6872 39.8895 83.5234 40.332L82.7422 42.4424C82.6907 42.5813 82.5813 42.6907 82.4424 42.7422L80.332 43.5234C79.8895 43.6872 79.8895 44.3128 80.332 44.4766L82.4424 45.2578C82.5813 45.3093 82.6907 45.4187 82.7422 45.5576L83.5234 47.668C83.6872 48.1105 84.3128 48.1105 84.4766 47.668L85.2578 45.5576C85.3093 45.4187 85.4187 45.3093 85.5576 45.2578L87.668 44.4766C88.1105 44.3128 88.1105 43.6872 87.668 43.5234L85.5576 42.7422C85.4187 42.6907 85.3093 42.5813 85.2578 42.4424L84.4766 40.332Z" fill="#DFEAFE"/>
<path d="M54.4531 32.6162C54.2973 32.1951 53.7027 32.1951 53.5469 32.6162L52.3877 35.7471C52.2779 36.0437 52.0437 36.2779 51.7471 36.3877L48.6162 37.5469C48.1951 37.7027 48.1951 38.2973 48.6162 38.4531L51.7471 39.6123C52.0437 39.7221 52.2779 39.9563 52.3877 40.2529L53.5469 43.3838C53.7027 43.8049 54.2973 43.8049 54.4531 43.3838L55.6123 40.2529C55.7221 39.9563 55.9563 39.7221 56.2529 39.6123L59.3838 38.4531C59.8049 38.2973 59.8049 37.7027 59.3838 37.5469L56.2529 36.3877C55.9563 36.2779 55.7221 36.0437 55.6123 35.7471L54.4531 32.6162Z" stroke="#7097FF" stroke-width="0.6"/>
<path d="M44.4767 56.3319C44.3129 55.8894 43.6871 55.8894 43.5233 56.3319L42.7424 58.4422C42.691 58.5813 42.5813 58.691 42.4422 58.7424L40.3319 59.5233C39.8894 59.6871 39.8894 60.3129 40.3319 60.4767L42.4422 61.2576C42.5813 61.309 42.691 61.4187 42.7424 61.5578L43.5233 63.6681C43.6871 64.1106 44.3129 64.1106 44.4767 63.6681L45.2576 61.5578C45.309 61.4187 45.4187 61.309 45.5578 61.2576L47.6681 60.4767C48.1106 60.3129 48.1106 59.6871 47.6681 59.5233L45.5578 58.7424C45.4187 58.691 45.309 58.5813 45.2576 58.4422L44.4767 56.3319Z" fill="#2E52B4"/>
<path d="M104 104C104 102.424 103.69 100.864 103.087 99.4078C102.483 97.9519 101.6 96.629 100.485 95.5147C99.371 94.4004 98.0481 93.5165 96.5922 92.9134C95.1363 92.3104 93.5759 92 92 92C90.4241 92 88.8637 92.3104 87.4078 92.9134C85.9519 93.5165 84.629 94.4004 83.5147 95.5147C82.4004 96.629 81.5165 97.9519 80.9134 99.4078C80.3104 100.864 80 102.424 80 104L104 104Z" fill="#C1D5FF"/>
<path d="M136 104C136 102.424 135.69 100.864 135.087 99.4078C134.483 97.9519 133.6 96.629 132.485 95.5147C131.371 94.4004 130.048 93.5165 128.592 92.9134C127.136 92.3104 125.576 92 124 92C122.424 92 120.864 92.3104 119.408 92.9134C117.952 93.5165 116.629 94.4004 115.515 95.5147C114.4 96.629 113.517 97.9519 112.913 99.4078C112.31 100.864 112 102.424 112 104L136 104Z" fill="#C1D5FF"/>
<path d="M72 104C72 102.424 71.6896 100.864 71.0866 99.4078C70.4835 97.9519 69.5996 96.629 68.4853 95.5147C67.371 94.4004 66.0481 93.5165 64.5922 92.9134C63.1363 92.3104 61.5759 92 60 92C58.4241 92 56.8637 92.3104 55.4078 92.9134C53.9519 93.5165 52.629 94.4004 51.5147 95.5147C50.4004 96.629 49.5165 97.9519 48.9134 99.4078C48.3104 100.864 48 102.424 48 104L72 104Z" fill="#C1D5FF"/>
<path d="M92 88L94.0001 88C99.5229 88 104 83.5229 104 78.0001L102 78.0001C96.4771 78.0001 92 82.4772 92 88Z" fill="#C1D5FF"/>
<path d="M60 88L62.0001 88C67.5229 88 72 83.5229 72 78.0001L69.9999 78.0001C64.4771 78.0001 60 82.4772 60 88Z" fill="#C1D5FF"/>
<path d="M80 78L82.0001 78C87.5229 78 92 82.4771 92 87.9999L89.9999 87.9999C84.4771 87.9999 80 83.5228 80 78Z" fill="#C1D5FF"/>
<path d="M48 78L50.0001 78C55.5229 78 60 82.4771 60 87.9999L57.9999 87.9999C52.4771 87.9999 48 83.5228 48 78Z" fill="#C1D5FF"/>
<path d="M92 88L92 98" stroke="#2E52B4" stroke-width="0.647059"/>
<path d="M60 88L60 98" stroke="#2E52B4" stroke-width="0.647059"/>
<path d="M124 87L126.824 87C129.682 87 132 84.6824 132 81.8235L132 79L129.176 79C126.318 79 124 81.3176 124 84.1765L124 87Z" fill="#C1D5FF"/>
<path d="M124 87L120.627 87C115.863 87 112 83.1374 112 78.3725L112 75L115.373 75C120.137 75 124 78.8626 124 83.6275L124 87Z" fill="#C1D5FF"/>
<path d="M124 72L126.824 72C129.682 72 132 69.6824 132 66.8235L132 64L129.176 64C126.318 64 124 66.3176 124 69.1765L124 72Z" fill="#C1D5FF"/>
<path d="M124 72L120.627 72C115.863 72 112 68.1374 112 63.3725L112 60L115.373 60C120.137 60 124 63.8626 124 68.6275L124 72Z" fill="#C1D5FF"/>
<path d="M124 98L124 59.5317C124 53.4566 119.075 48.5317 113 48.5317" stroke="#2E52B4" stroke-width="0.647059"/>
<g filter="url(#filter0_ddddii_18593_2474)">
<path d="M102 33H111.074C116.556 33 121 37.444 121 42.9259V52H111.926C106.444 52 102 47.556 102 42.0741V33Z" fill="url(#paint0_linear_18593_2474)"/>
<path d="M102 33L121 52H111.926C106.444 52 102 47.556 102 42.0741V33Z" fill="white" fill-opacity="0.4"/>
</g>
<defs>
<filter id="filter0_ddddii_18593_2474" x="100.774" y="31.5695" width="38.0056" height="36.3707" filterUnits="userSpaceOnUse" color-interpolation-filters="sRGB">
<feFlood flood-opacity="0" result="BackgroundImageFix"/>
<feColorMatrix in="SourceAlpha" type="matrix" values="0 0 0 0 0 0 0 0 0 0 0 0 0 0 0 0 0 0 127 0" result="hardAlpha"/>
<feOffset dx="0.817446" dy="0.613085"/>
<feGaussianBlur stdDeviation="1.02181"/>
<feColorMatrix type="matrix" values="0 0 0 0 0 0 0 0 0 0 0 0 0 0 0 0 0 0 0.25 0"/>
<feBlend mode="normal" in2="BackgroundImageFix" result="effect1_dropShadow_18593_2474"/>
<feColorMatrix in="SourceAlpha" type="matrix" values="0 0 0 0 0 0 0 0 0 0 0 0 0 0 0 0 0 0 127 0" result="hardAlpha"/>
<feOffset dx="2.86106" dy="2.45234"/>
<feGaussianBlur stdDeviation="1.83925"/>
<feColorMatrix type="matrix" values="0 0 0 0 0 0 0 0 0 0 0 0 0 0 0 0 0 0 0.21 0"/>
<feBlend mode="normal" in2="effect1_dropShadow_18593_2474" result="effect2_dropShadow_18593_2474"/>
<feColorMatrix in="SourceAlpha" type="matrix" values="0 0 0 0 0 0 0 0 0 0 0 0 0 0 0 0 0 0 127 0" result="hardAlpha"/>
<feOffset dx="6.53957" dy="5.51776"/>
<feGaussianBlur stdDeviation="2.55452"/>
<feColorMatrix type="matrix" values="0 0 0 0 0 0 0 0 0 0 0 0 0 0 0 0 0 0 0.13 0"/>
<feBlend mode="normal" in2="effect2_dropShadow_18593_2474" result="effect3_dropShadow_18593_2474"/>
<feColorMatrix in="SourceAlpha" type="matrix" values="0 0 0 0 0 0 0 0 0 0 0 0 0 0 0 0 0 0 127 0" result="hardAlpha"/>
<feOffset dx="11.6486" dy="9.80935"/>
<feGaussianBlur stdDeviation="3.06542"/>
<feColorMatrix type="matrix" values="0 0 0 0 0 0 0 0 0 0 0 0 0 0 0 0 0 0 0.04 0"/>
<feBlend mode="normal" in2="effect3_dropShadow_18593_2474" result="effect4_dropShadow_18593_2474"/>
<feBlend mode="normal" in="SourceGraphic" in2="effect4_dropShadow_18593_2474" result="shape"/>
<feColorMatrix in="SourceAlpha" type="matrix" values="0 0 0 0 0 0 0 0 0 0 0 0 0 0 0 0 0 0 127 0" result="hardAlpha"/>
<feOffset dx="0.6" dy="0.6"/>
<feGaussianBlur stdDeviation="0.3"/>
<feComposite in2="hardAlpha" operator="arithmetic" k2="-1" k3="1"/>
<feColorMatrix type="matrix" values="0 0 0 0 1 0 0 0 0 1 0 0 0 0 1 0 0 0 0.4 0"/>
<feBlend mode="normal" in2="shape" result="effect5_innerShadow_18593_2474"/>
<feColorMatrix in="SourceAlpha" type="matrix" values="0 0 0 0 0 0 0 0 0 0 0 0 0 0 0 0 0 0 127 0" result="hardAlpha"/>
<feOffset dx="-0.6" dy="-0.6"/>
<feGaussianBlur stdDeviation="0.3"/>
<feComposite in2="hardAlpha" operator="arithmetic" k2="-1" k3="1"/>
<feColorMatrix type="matrix" values="0 0 0 0 0 0 0 0 0 0 0 0 0 0 0 0 0 0 0.3 0"/>
<feBlend mode="normal" in2="effect5_innerShadow_18593_2474" result="effect6_innerShadow_18593_2474"/>
</filter>
<linearGradient id="paint0_linear_18593_2474" x1="102" y1="33" x2="120.69" y2="52.3004" gradientUnits="userSpaceOnUse">
<stop stop-color="#A4BCFF"/>
<stop offset="1" stop-color="#648EFF"/>
</linearGradient>
</defs>
</svg>
